<svg width="234" height="158" viewBox="0 0 234 158" fill="none" xmlns="http://www.w3.org/2000/svg">
<path d="M99.5021 9.63877C107.281 -3.21249 126.726 -3.21317 134.506 9.63877L178.263 81.9323C186.039 94.7841 176.313 110.85 160.756 110.85C160.756 110.85 137.052 110.85 129.053 110.85C121.053 110.85 129.053 96.3909 137.053 96.3909C145.053 96.3909 152.002 96.3909 152.002 96.3909C159.781 96.3909 164.644 88.3586 160.756 81.9323L125.752 24.0976C121.863 17.6714 112.135 17.6714 108.245 24.0976L73.2419 81.9323C69.3547 88.3586 74.2171 96.3909 81.9953 96.3909C81.9953 96.3909 89.0533 96.3909 97.0532 96.3909C105.053 96.3909 111.178 81.9323 107.365 81.9323C103.553 81.9323 103.213 81.9323 103.213 81.9323C98.5458 81.9323 95.6415 77.1097 97.9752 73.2541L111.749 49.2083C114.084 45.3572 119.915 45.3564 122.249 49.2083L136.02 73.2541C138.354 77.1097 135.45 81.9323 130.782 81.9323C130.782 81.9323 130.928 81.9323 126.577 81.9323C124.448 81.9323 124.754 88.8901 121.484 95.9799C118.075 103.371 110.938 110.906 101.053 110.85C88.1722 110.777 90.013 110.85 73.2419 110.85C57.6857 110.85 47.9603 94.7841 55.7353 81.9323L99.5021 9.63877Z" fill="#00F47F"/>
<path d="M55.6152 151.68H44.4952L42.6552 157H36.7752L46.8152 129.04H53.3352L63.3752 157H57.4552L55.6152 151.68ZM54.0952 147.2L50.0552 135.52L46.0152 147.2H54.0952ZM77.208 157.36C75.3946 157.36 73.768 157.04 72.328 156.4C70.888 155.733 69.7413 154.84 68.888 153.72C68.0613 152.6 67.608 151.36 67.528 150H73.168C73.2746 150.853 73.688 151.56 74.408 152.12C75.1546 152.68 76.0746 152.96 77.168 152.96C78.2346 152.96 79.0613 152.747 79.648 152.32C80.2613 151.893 80.568 151.347 80.568 150.68C80.568 149.96 80.1946 149.427 79.448 149.08C78.728 148.707 77.568 148.307 75.968 147.88C74.3146 147.48 72.9546 147.067 71.888 146.64C70.848 146.213 69.9413 145.56 69.168 144.68C68.4213 143.8 68.048 142.613 68.048 141.12C68.048 139.893 68.3946 138.773 69.088 137.76C69.808 136.747 70.8213 135.947 72.128 135.36C73.4613 134.773 75.0213 134.48 76.808 134.48C79.448 134.48 81.5546 135.147 83.128 136.48C84.7013 137.787 85.568 139.56 85.728 141.8H80.368C80.288 140.92 79.9146 140.227 79.248 139.72C78.608 139.187 77.7413 138.92 76.648 138.92C75.6346 138.92 74.848 139.107 74.288 139.48C73.7546 139.853 73.488 140.373 73.488 141.04C73.488 141.787 73.8613 142.36 74.608 142.76C75.3546 143.133 76.5146 143.52 78.088 143.92C79.688 144.32 81.008 144.733 82.048 145.16C83.088 145.587 83.9813 146.253 84.728 147.16C85.5013 148.04 85.9013 149.213 85.928 150.68C85.928 151.96 85.568 153.107 84.848 154.12C84.1546 155.133 83.1413 155.933 81.808 156.52C80.5013 157.08 78.968 157.36 77.208 157.36ZM90.6848 145.92C90.6848 143.627 91.1515 141.627 92.0848 139.92C93.0182 138.187 94.3115 136.853 95.9648 135.92C97.6182 134.96 99.5115 134.48 101.645 134.48C104.392 134.48 106.658 135.173 108.445 136.56C110.258 137.92 111.472 139.84 112.085 142.32H106.045C105.725 141.36 105.178 140.613 104.405 140.08C103.658 139.52 102.725 139.24 101.605 139.24C100.005 139.24 98.7382 139.827 97.8048 141C96.8715 142.147 96.4048 143.787 96.4048 145.92C96.4048 148.027 96.8715 149.667 97.8048 150.84C98.7382 151.987 100.005 152.56 101.605 152.56C103.872 152.56 105.352 151.547 106.045 149.52H112.085C111.472 151.92 110.258 153.827 108.445 155.24C106.632 156.653 104.365 157.36 101.645 157.36C99.5115 157.36 97.6182 156.893 95.9648 155.96C94.3115 155 93.0182 153.667 92.0848 151.96C91.1515 150.227 90.6848 148.213 90.6848 145.92ZM138.387 145.44C138.387 146.24 138.334 146.96 138.227 147.6H122.027C122.161 149.2 122.721 150.453 123.707 151.36C124.694 152.267 125.907 152.72 127.347 152.72C129.427 152.72 130.907 151.827 131.787 150.04H137.827C137.187 152.173 135.961 153.933 134.147 155.32C132.334 156.68 130.107 157.36 127.467 157.36C125.334 157.36 123.414 156.893 121.707 155.96C120.027 155 118.707 153.653 117.747 151.92C116.814 150.187 116.347 148.187 116.347 145.92C116.347 143.627 116.814 141.613 117.747 139.88C118.681 138.147 119.987 136.813 121.667 135.88C123.347 134.947 125.281 134.48 127.467 134.48C129.574 134.48 131.454 134.933 133.107 135.84C134.787 136.747 136.081 138.04 136.987 139.72C137.921 141.373 138.387 143.28 138.387 145.44ZM132.587 143.84C132.561 142.4 132.041 141.253 131.027 140.4C130.014 139.52 128.774 139.08 127.307 139.08C125.921 139.08 124.747 139.507 123.787 140.36C122.854 141.187 122.281 142.347 122.067 143.84H132.587ZM150.595 139.44V150.16C150.595 150.907 150.768 151.453 151.115 151.8C151.488 152.12 152.102 152.28 152.955 152.28H155.555V157H152.035C147.315 157 144.955 154.707 144.955 150.12V139.44H142.315V134.84H144.955V129.36H150.595V134.84H155.555V139.44H150.595ZM166.783 127.4V157H161.183V127.4H166.783ZM172.475 145.84C172.475 143.6 172.915 141.613 173.795 139.88C174.702 138.147 175.915 136.813 177.435 135.88C178.982 134.947 180.702 134.48 182.595 134.48C184.249 134.48 185.689 134.813 186.915 135.48C188.169 136.147 189.169 136.987 189.915 138V134.84H195.555V157H189.915V153.76C189.195 154.8 188.195 155.667 186.915 156.36C185.662 157.027 184.209 157.36 182.555 157.36C180.689 157.36 178.982 156.88 177.435 155.92C175.915 154.96 174.702 153.613 173.795 151.88C172.915 150.12 172.475 148.107 172.475 145.84ZM189.915 145.92C189.915 144.56 189.649 143.4 189.115 142.44C188.582 141.453 187.862 140.707 186.955 140.2C186.049 139.667 185.075 139.4 184.035 139.4C182.995 139.4 182.035 139.653 181.155 140.16C180.275 140.667 179.555 141.413 178.995 142.4C178.462 143.36 178.195 144.507 178.195 145.84C178.195 147.173 178.462 148.347 178.995 149.36C179.555 150.347 180.275 151.107 181.155 151.64C182.062 152.173 183.022 152.44 184.035 152.44C185.075 152.44 186.049 152.187 186.955 151.68C187.862 151.147 188.582 150.4 189.115 149.44C189.649 148.453 189.915 147.28 189.915 145.92Z" fill="#00F47F"/>
</svg>
