<svg width="157" height="39" viewBox="0 0 157 39" fill="none" xmlns="http://www.w3.org/2000/svg">
<path d="M0.152 38L15.608 1.616H15.944L31.4 38H24.968L14.072 10.4L18.104 7.664L5.672 38H0.152ZM9.848 25.04H21.8L23.72 29.792H8.168L9.848 25.04ZM42.3545 38.432C40.8185 38.432 39.3465 38.16 37.9385 37.616C36.5625 37.072 35.3945 36.272 34.4345 35.216L36.7385 32.192C37.6345 33.056 38.5145 33.696 39.3785 34.112C40.2745 34.496 41.1225 34.688 41.9225 34.688C42.5305 34.688 43.0745 34.624 43.5545 34.496C44.0665 34.336 44.4665 34.096 44.7545 33.776C45.0745 33.456 45.2345 33.024 45.2345 32.48C45.2345 31.84 45.0105 31.344 44.5625 30.992C44.1145 30.608 43.5385 30.304 42.8345 30.08C42.1305 29.824 41.3945 29.584 40.6265 29.36C38.8665 28.816 37.5545 28.016 36.6905 26.96C35.8265 25.904 35.3945 24.688 35.3945 23.312C35.3945 22.256 35.6665 21.248 36.2105 20.288C36.7545 19.296 37.5865 18.48 38.7065 17.84C39.8265 17.2 41.2345 16.88 42.9305 16.88C44.4665 16.88 45.7945 17.056 46.9145 17.408C48.0665 17.728 49.1385 18.288 50.1305 19.088L48.0665 22.304C47.4905 21.76 46.8025 21.344 46.0025 21.056C45.2345 20.736 44.5305 20.56 43.8905 20.528C43.3145 20.496 42.8025 20.576 42.3545 20.768C41.9065 20.928 41.5385 21.168 41.2505 21.488C40.9945 21.808 40.8665 22.176 40.8665 22.592C40.8345 23.232 41.0425 23.744 41.4905 24.128C41.9705 24.512 42.5785 24.816 43.3145 25.04C44.0505 25.264 44.7865 25.504 45.5225 25.76C46.5145 26.048 47.3945 26.448 48.1625 26.96C48.9305 27.472 49.5225 28.096 49.9385 28.832C50.3865 29.536 50.6105 30.416 50.6105 31.472C50.6105 32.688 50.3065 33.84 49.6985 34.928C49.0905 35.984 48.1785 36.832 46.9625 37.472C45.7465 38.112 44.2105 38.432 42.3545 38.432ZM73.3554 36.128C72.4594 36.864 71.3554 37.456 70.0434 37.904C68.7634 38.32 67.4674 38.528 66.1554 38.528C63.9154 38.528 61.9474 38.096 60.2514 37.232C58.5554 36.336 57.2274 35.104 56.2674 33.536C55.3394 31.936 54.8754 30.032 54.8754 27.824C54.8754 25.616 55.3714 23.712 56.3634 22.112C57.3874 20.512 58.7154 19.296 60.3474 18.464C62.0114 17.6 63.7714 17.168 65.6274 17.168C67.3234 17.168 68.8274 17.408 70.1394 17.888C71.4514 18.336 72.5874 18.96 73.5474 19.76L70.8594 23.264C70.3474 22.848 69.6754 22.464 68.8434 22.112C68.0434 21.728 67.1314 21.536 66.1074 21.536C65.0194 21.536 64.0274 21.808 63.1314 22.352C62.2674 22.896 61.5634 23.648 61.0194 24.608C60.5074 25.536 60.2514 26.608 60.2514 27.824C60.2514 28.976 60.5234 30.032 61.0674 30.992C61.6114 31.952 62.3634 32.72 63.3234 33.296C64.2834 33.84 65.3874 34.112 66.6354 34.112C67.4354 34.112 68.1714 34 68.8434 33.776C69.5474 33.52 70.1554 33.184 70.6674 32.768L73.3554 36.128ZM88.5639 38.528C86.1639 38.528 84.1159 38.064 82.4199 37.136C80.7239 36.208 79.4279 34.928 78.5319 33.296C77.6359 31.632 77.1879 29.76 77.1879 27.68C77.1879 25.632 77.6999 23.792 78.7239 22.16C79.7479 20.528 81.1239 19.232 82.8519 18.272C84.6119 17.28 86.5479 16.784 88.6599 16.784C91.4439 16.784 93.7319 17.6 95.5239 19.232C97.3479 20.832 98.5639 23.104 99.1719 26.048L82.8039 31.568L81.5559 28.544L94.3239 23.984L93.2199 24.608C92.8679 23.648 92.2919 22.816 91.4919 22.112C90.7239 21.408 89.6359 21.056 88.2279 21.056C87.1079 21.056 86.1159 21.328 85.2519 21.872C84.3879 22.384 83.6999 23.12 83.1879 24.08C82.7079 25.008 82.4679 26.112 82.4679 27.392C82.4679 28.704 82.7399 29.856 83.2839 30.848C83.8279 31.84 84.5639 32.608 85.4919 33.152C86.4199 33.664 87.4759 33.92 88.6599 33.92C89.4919 33.92 90.2919 33.776 91.0599 33.488C91.8279 33.2 92.5479 32.816 93.2199 32.336L95.6679 36.32C94.6119 36.992 93.4439 37.536 92.1639 37.952C90.9159 38.336 89.7159 38.528 88.5639 38.528ZM104.462 0.559999H109.838V38H104.462V0.559999ZM119.132 8.768H124.556V17.696H129.836V21.92H124.556V38H119.132V21.92H115.676V17.696H119.132V8.768ZM143.662 38.528C141.742 38.528 139.998 38.128 138.43 37.328C136.894 36.528 135.678 35.344 134.782 33.776C133.886 32.176 133.438 30.208 133.438 27.872C133.438 25.568 133.902 23.6 134.83 21.968C135.79 20.304 137.038 19.024 138.574 18.128C140.142 17.232 141.838 16.784 143.662 16.784C145.614 16.784 147.182 17.168 148.366 17.936C149.582 18.704 150.526 19.616 151.198 20.672L150.91 21.44L151.438 17.696H156.382V38H151.006V33.056L151.534 34.352C151.406 34.544 151.15 34.864 150.766 35.312C150.382 35.728 149.854 36.192 149.182 36.704C148.51 37.216 147.71 37.648 146.782 38C145.886 38.352 144.846 38.528 143.662 38.528ZM145.15 34.112C146.11 34.112 146.974 33.936 147.742 33.584C148.542 33.232 149.214 32.736 149.758 32.096C150.334 31.456 150.75 30.688 151.006 29.792V25.376C150.75 24.544 150.334 23.824 149.758 23.216C149.182 22.576 148.478 22.08 147.646 21.728C146.846 21.376 145.95 21.2 144.958 21.2C143.87 21.2 142.862 21.472 141.934 22.016C141.006 22.56 140.254 23.312 139.678 24.272C139.134 25.232 138.862 26.336 138.862 27.584C138.862 28.8 139.15 29.904 139.726 30.896C140.302 31.888 141.07 32.672 142.03 33.248C142.99 33.824 144.03 34.112 145.15 34.112Z" fill="url(#paint0_linear_26_23)"/>
<defs>
<linearGradient id="paint0_linear_26_23" x1="-1" y1="26" x2="161" y2="26" gradientUnits="userSpaceOnUse">
<stop offset="0.25" stop-color="#A95AFF"/>
<stop offset="0.5" stop-color="#91A3FF"/>
<stop offset="0.75" stop-color="#47D8DC"/>
</linearGradient>
</defs>
</svg>
