<svg width="21" height="26" viewBox="0 0 21 26" fill="none" xmlns="http://www.w3.org/2000/svg">
<path d="M15.125 6.79688C15.3542 6.79688 15.7448 6.83333 16.2969 6.90625C16.849 6.97917 17.4531 7.1875 18.1094 7.53125C18.776 7.86458 19.3802 8.42188 19.9219 9.20312C19.8906 9.23438 19.7396 9.34896 19.4688 9.54688C19.1979 9.73438 18.8958 10.0156 18.5625 10.3906C18.2292 10.7552 17.9375 11.224 17.6875 11.7969C17.4375 12.3594 17.3125 13.0312 17.3125 13.8125C17.3125 14.7083 17.4688 15.4688 17.7812 16.0938C18.1042 16.7188 18.474 17.224 18.8906 17.6094C19.3177 17.9844 19.6927 18.2604 20.0156 18.4375C20.349 18.6146 20.526 18.7083 20.5469 18.7188C20.5365 18.7604 20.401 19.1302 20.1406 19.8281C19.8906 20.526 19.474 21.3021 18.8906 22.1562C18.3802 22.8958 17.8281 23.5781 17.2344 24.2031C16.651 24.8281 15.9479 25.1406 15.125 25.1406C14.5729 25.1406 14.1198 25.0625 13.7656 24.9062C13.4115 24.7396 13.0469 24.5781 12.6719 24.4219C12.2969 24.2552 11.7917 24.1719 11.1562 24.1719C10.5417 24.1719 10.026 24.2552 9.60938 24.4219C9.20312 24.5885 8.8125 24.7552 8.4375 24.9219C8.07292 25.0885 7.64062 25.1719 7.14062 25.1719C6.38021 25.1719 5.71354 24.8698 5.14062 24.2656C4.56771 23.6615 3.97917 22.9375 3.375 22.0938C2.67708 21.0938 2.07812 19.875 1.57812 18.4375C1.08854 16.9896 0.84375 15.5312 0.84375 14.0625C0.84375 12.4896 1.14062 11.1719 1.73438 10.1094C2.32812 9.03646 3.08854 8.22917 4.01562 7.6875C4.95312 7.13542 5.92188 6.85938 6.92188 6.85938C7.45312 6.85938 7.95312 6.94792 8.42188 7.125C8.89062 7.29167 9.32812 7.46354 9.73438 7.64062C10.151 7.81771 10.526 7.90625 10.8594 7.90625C11.1823 7.90625 11.5573 7.8125 11.9844 7.625C12.4115 7.4375 12.8906 7.25521 13.4219 7.07812C13.9531 6.89062 14.5208 6.79688 15.125 6.79688ZM14.2656 4.8125C13.8594 5.30208 13.349 5.71354 12.7344 6.04688C12.1198 6.36979 11.5365 6.53125 10.9844 6.53125C10.8698 6.53125 10.7604 6.52083 10.6562 6.5C10.6458 6.46875 10.6354 6.41146 10.625 6.32812C10.6146 6.24479 10.6094 6.15625 10.6094 6.0625C10.6094 5.4375 10.7448 4.83333 11.0156 4.25C11.2865 3.65625 11.5938 3.16667 11.9375 2.78125C12.375 2.26042 12.9271 1.82812 13.5938 1.48438C14.2604 1.14062 14.8958 0.958333 15.5 0.9375C15.5312 1.07292 15.5469 1.23438 15.5469 1.42188C15.5469 2.04688 15.4271 2.65625 15.1875 3.25C14.9479 3.83333 14.6406 4.35417 14.2656 4.8125Z" fill="black"/>
</svg>
